<svg width="24" height="30" viewBox="0 0 24 30" fill="none" xmlns="http://www.w3.org/2000/svg">
<rect x="1" y="13" width="22" height="16" rx="5" stroke="black" stroke-width="2"/>
<path d="M2 19C4.24743 20.39 5.45128 20.3344 7.5 19C9.16479 17.86 10.133 17.6465 12 19C14.0559 20.3831 15.1434 20.3404 17 19C18.9531 17.7382 20.0471 17.9612 22 19M12 12.5V10" stroke="black" stroke-width="2" stroke-linejoin="round"/>
<path d="M12.7071 2.29289L12 1.58579L11.2929 2.29289C11.2545 2.33126 11.1957 2.38327 11.1215 2.44886C10.5371 2.96526 9 4.32372 9 6.5C9 7.60828 9.25457 8.66081 9.71754 9.47101C10.1643 10.2529 10.934 11 12 11C13.066 11 13.8357 10.2529 14.2825 9.47101C14.7454 8.66081 15 7.60828 15 6.5C15 4.32372 13.4629 2.96526 12.8785 2.44886C12.8043 2.38327 12.7455 2.33126 12.7071 2.29289Z" stroke="black" stroke-width="2"/>
</svg>
