<svg width="30" height="30" viewBox="0 0 30 30" fill="none" xmlns="http://www.w3.org/2000/svg">
<path d="M10.2557 28.7676C10.6454 29.1588 11.2786 29.16 11.6699 28.7702C12.0611 28.3804 12.0623 27.7473 11.6725 27.356L10.2557 28.7676ZM5.26502 23.7582L10.2557 28.7676L11.6725 27.356L6.68188 22.3467L5.26502 23.7582Z" fill="black"/>
<path d="M13.3265 25.8417C13.7163 26.233 14.3495 26.2341 14.7407 25.8443C15.132 25.4546 15.1332 24.8214 14.7434 24.4301L13.3265 25.8417ZM8.33588 20.8324L13.3265 25.8417L14.7434 24.4301L9.75274 19.4208L8.33588 20.8324Z" fill="black"/>
<path d="M16.3974 22.9158C16.7872 23.3071 17.4203 23.3083 17.8116 22.9185C18.2028 22.5287 18.204 21.8955 17.8142 21.5043L16.3974 22.9158ZM11.4067 17.9065L16.3974 22.9158L17.8142 21.5043L12.8236 16.4949L11.4067 17.9065Z" fill="black"/>
<path d="M23.693 15.9631C24.0828 16.3543 24.716 16.3555 25.1072 15.9657C25.4985 15.5759 25.4997 14.9427 25.1099 14.5515L23.693 15.9631ZM18.7024 10.9537L23.693 15.9631L25.1099 14.5515L20.1193 9.54214L18.7024 10.9537Z" fill="black"/>
<path d="M27.4215 12.4123C27.8113 12.8035 28.4444 12.8047 28.8357 12.4149C29.227 12.0251 29.2281 11.3919 28.8383 11.0007L27.4215 12.4123ZM22.4309 7.40291L27.4215 12.4123L28.8383 11.0007L23.8477 5.99135L22.4309 7.40291Z" fill="black"/>
<path d="M19.8558 19.6208C20.2455 20.012 20.8787 20.0132 21.27 19.6234C21.6612 19.2336 21.6624 18.6004 21.2726 18.2092L19.8558 19.6208ZM14.8651 14.6114L19.8558 19.6208L21.2726 18.2092L16.282 13.1998L14.8651 14.6114Z" fill="black"/>
<path d="M20.7029 4.22283L22.5533 6.11767L5.56603 22.7064L3.71563 20.8116C2.55805 19.6262 2.58059 17.7268 3.76598 16.5693L16.4605 4.17248C17.6459 3.0149 19.5453 3.03744 20.7029 4.22283Z" stroke="black" stroke-width="2"/>
</svg>
