<svg width="28" height="30" viewBox="0 0 28 30" fill="none" xmlns="http://www.w3.org/2000/svg">
<path d="M20.5276 6.24743C22.1204 7.54055 22.7712 8.42021 23.5276 10.2474C24.1008 11.1289 24.0822 12.1426 23.5276 14.7474C24.4886 15.616 24.9359 16.1584 25.5276 17.2474C26.4636 19.9811 26.3239 21.5137 25.5276 24.2474C24.6179 25.9818 23.8892 26.9181 20.5276 28.2474C17.8306 28.8189 16.2996 28.8576 13.5276 28.2474C11.7671 27.1227 10.8435 26.3532 9.52759 24.2474C8.89183 21.4102 8.75955 19.856 9.52759 17.2474C9.94156 16.5273 10.0368 16.1113 11.5276 15.2474C11.2083 12.9043 11.0896 11.5906 11.5276 9.24743C12.6919 7.7902 13.3774 7.01924 15.0276 6.24743H16.5276M20.5276 6.24743H16.5276M20.5276 6.24743C20.0044 5.34675 20.0617 4.92193 20.5276 4.24743H21.5276C22.058 3.03594 21.9983 2.38353 21.5276 1.24743C20.7469 0.923302 20.3086 0.91181 19.5276 1.24743L18.5276 2.24743H17.5276C17.444 2.56487 17.4391 2.77994 17.5276 3.24743L16.5276 4.24743C16.0491 5.02845 16.1716 5.4664 16.5276 6.24743" stroke="black" stroke-width="2" stroke-linejoin="round"/>
</svg>
