<svg width="60" height="52" viewBox="0 0 60 52" fill="none" xmlns="http://www.w3.org/2000/svg">
<path d="M29.8437 16.8216C25.7366 9.96681 23.457 5.98582 18.6484 3.31539C14.1411 1.54454 11.8331 1.58395 8.07502 3.31539C3.9058 5.92843 3.63415 6.96701 2.78833 8.89406C1.84356 12.4936 1.90684 14.2799 2.16637 17.4089C3.11559 25.8913 4.83854 27.8343 7.45306 32.3832C15.1163 42.0983 21.2459 45.3816 30.7767 50" stroke="black" stroke-width="3"/>
<path d="M30.1547 16.7765C34.2621 9.94162 36.5418 5.97222 41.3507 3.30958C45.8582 1.54388 48.1664 1.58318 51.9246 3.30958C56.0941 5.915 56.3658 6.95055 57.2116 8.87199C58.1564 12.461 58.0932 14.2422 57.8336 17.362C56.8844 25.8197 55.1613 27.7571 52.5466 32.2927C44.8829 41.9795 39.375 45.395 29.8437 50" stroke="black" stroke-width="3"/>
<path d="M29.3773 15.6472C29.3773 15.6472 29.3773 16.8216 29.9993 16.8216C30.6214 16.8216 30.6214 15.6472 30.6214 15.6472" stroke="black" stroke-width="3"/>
</svg>
