<svg width="58" height="48" viewBox="0 0 58 48" fill="none" xmlns="http://www.w3.org/2000/svg">
<path d="M20.0398 9.5C9.50745 9.5 8.98082 39 20.0398 39M14.7735 2C-2.16584 2.77483 -2.34954 47.2334 14.7734 46.5M37.9449 9.5C50.9144 11.1391 48.6156 40.5146 37.9449 39M43.2112 2C61.5717 2.70448 58.9021 47.167 43.2111 46.5" stroke="black" stroke-width="3"/>
<path d="M25.2631 19.8288L25.9254 18.483L25.843 18.4424L25.7563 18.4122L25.2631 19.8288ZM22.2802 19.8288L21.7132 18.4401L21.6302 18.474L21.5519 18.5175L22.2802 19.8288ZM20.7887 21.2235L19.4445 20.5577L19.3871 20.6735L19.3504 20.7975L20.7887 21.2235ZM20.6132 23.3522L19.1197 23.492L19.122 23.5161L19.125 23.5401L20.6132 23.3522ZM22.1047 27.0958L20.8462 27.912L20.9084 28.0078L20.9843 28.0931L22.1047 27.0958ZM28.4004 33.3783C29.1616 33.7051 30.0437 33.353 30.3706 32.5918C30.6974 31.8306 30.3453 30.9485 29.5841 30.6217L28.4004 33.3783ZM29.6642 22.3652C28.5607 20.7332 27.7053 19.3589 25.9254 18.483L24.6008 21.1747C25.5341 21.634 25.965 22.2501 27.1789 24.0456L29.6642 22.3652ZM25.7563 18.4122C25.0546 18.1679 24.3888 17.9986 23.6883 18.0005C22.9694 18.0024 22.341 18.1838 21.7132 18.4401L22.8471 21.2175C23.2795 21.041 23.5068 21.001 23.6964 21.0005C23.9044 20.9999 24.2 21.047 24.7699 21.2454L25.7563 18.4122ZM21.5519 18.5175C20.9274 18.8643 20.4514 19.1817 20.0942 19.5585C19.7103 19.9635 19.5322 20.3807 19.4445 20.5577L22.1328 21.8892C22.2838 21.5844 22.2633 21.631 22.2715 21.6224C22.3063 21.5857 22.4567 21.4466 23.0085 21.1401L21.5519 18.5175ZM19.3504 20.7975C19.0106 21.9447 19.0362 22.5996 19.1197 23.492L22.1067 23.2124C22.0438 22.5403 22.0336 22.302 22.2269 21.6495L19.3504 20.7975ZM19.125 23.5401C19.2716 24.7008 19.4908 25.5155 19.824 26.2281C20.1296 26.8818 20.5445 27.4469 20.8462 27.912L23.3632 26.2795C22.9272 25.6074 22.7303 25.361 22.5416 24.9574C22.3804 24.6127 22.2226 24.1242 22.1014 23.1642L19.125 23.5401ZM20.9843 28.0931C23.3127 30.7089 25.5397 32.1499 28.4004 33.3783L29.5841 30.6217C27.0672 29.5409 25.2206 28.3402 23.2251 26.0984L20.9843 28.0931Z" fill="black"/>
<path d="M28.5089 23.1941C29.6677 21.4854 30.3108 20.493 31.6675 19.8274C32.9392 19.3859 33.5903 19.3958 34.6506 19.8274C35.8269 20.4787 35.9036 20.7376 36.1422 21.218C36.4087 22.1152 36.3909 22.5605 36.3177 23.3405C36.0499 25.4549 35.5638 25.9392 34.8261 27.0731C32.664 29.4948 31.6812 30.8487 28.9923 32" stroke="black" stroke-width="3" stroke-linecap="round"/>
<path d="M28.2896 22.9117C28.2896 22.9117 28.2896 23.2054 28.4651 23.2054C28.6406 23.2054 28.6406 22.9117 28.6406 22.9117" stroke="black" stroke-width="3"/>
</svg>
