<svg width="24" height="29" viewBox="0 0 24 29" fill="none" xmlns="http://www.w3.org/2000/svg">
<path d="M1.47639 16.7504C0.722605 13.2357 0.971918 11.2652 1.47639 7.75042C3.33082 4.91874 4.66284 3.62333 7.47639 1.75042C10.8958 0.78548 12.8582 0.714866 16.4764 1.75042C19.292 3.42365 20.5928 4.74861 22.4764 7.75042C22.8844 11.2652 23.0243 13.2357 22.4764 16.7504C20.4058 20.4475 18.5571 22.6297 13.9764 26.7504C12.6093 27.3022 11.843 27.315 10.4764 26.7504C6.51487 23.3019 4.6097 21.045 1.47639 16.7504Z" stroke="black" stroke-width="2" stroke-linejoin="round"/>
<path d="M14.9764 12.7504C14.9764 14.7974 13.5258 16.2504 11.9764 16.2504C10.4271 16.2504 8.97644 14.7974 8.97644 12.7504C8.97644 10.7034 10.4271 9.25043 11.9764 9.25043C13.5258 9.25043 14.9764 10.7034 14.9764 12.7504Z" stroke="black" stroke-width="2"/>
</svg>
