<svg width="26" height="23" viewBox="0 0 26 23" fill="none" xmlns="http://www.w3.org/2000/svg">
<path d="M12.9345 7.48448C11.1743 4.48549 10.1973 2.74381 8.13657 1.5755C6.20491 0.80075 5.21579 0.817992 3.60523 1.5755C1.81846 2.7187 1.70204 3.17308 1.33956 4.01616C0.934667 5.59094 0.961786 6.37248 1.07301 7.74139C1.47981 11.4524 2.2182 12.3025 3.33868 14.2927C6.62286 18.543 9.24976 19.9795 13.3343 22" stroke="black" stroke-width="2"/>
<path d="M13.0666 7.46471C14.8268 4.47446 15.8039 2.73785 17.8647 1.57294C19.7965 0.800448 20.7857 0.81764 22.3963 1.57294C24.1832 2.71281 24.2996 3.16587 24.6621 4.0065C25.067 5.57669 25.0399 6.35595 24.9287 7.72087C24.5219 11.4211 23.7834 12.2687 22.6629 14.2531C19.3785 18.491 17.0181 19.9853 12.9333 22" stroke="black" stroke-width="2"/>
<path d="M12.7339 6.97064C12.7339 6.97064 12.7339 7.48447 13.0006 7.48447C13.2672 7.48447 13.2672 6.97064 13.2672 6.97064" stroke="black" stroke-width="2"/>
</svg>
